<?xml version="1.0" encoding="UTF-8" standalone="no"?>
<!-- Created with Inkscape (http://www.inkscape.org/) -->

<svg
   xmlns:dc="http://purl.org/dc/elements/1.1/"
   xmlns:cc="http://creativecommons.org/ns#"
   xmlns:rdf="http://www.w3.org/1999/02/22-rdf-syntax-ns#"
   xmlns:svg="http://www.w3.org/2000/svg"
   xmlns="http://www.w3.org/2000/svg"
   xmlns:sodipodi="http://sodipodi.sourceforge.net/DTD/sodipodi-0.dtd"
   xmlns:inkscape="http://www.inkscape.org/namespaces/inkscape"
   width="300"
   height="300"
   viewBox="0 0 300 300"
   version="1.1"
   id="svg2216"
   inkscape:version="0.92.3 (2405546, 2018-03-11)"
   sodipodi:docname="_NEW-MASTER-TEMPLATE-FRAME.svg">
  <defs
     id="defs2210" />
  <sodipodi:namedview
     id="base"
     pagecolor="#ffffff"
     bordercolor="#666666"
     borderopacity="1.0"
     inkscape:pageopacity="0.0"
     inkscape:pageshadow="2"
     inkscape:zoom="1.4"
     inkscape:cx="130.38644"
     inkscape:cy="140.62169"
     inkscape:document-units="px"
     inkscape:current-layer="layer1"
     showgrid="false"
     units="px"
     inkscape:window-width="1280"
     inkscape:window-height="737"
     inkscape:window-x="-8"
     inkscape:window-y="-8"
     inkscape:window-maximized="1"
     fit-margin-top="10"
     fit-margin-left="10"
     fit-margin-bottom="10"
     fit-margin-right="10"
     inkscape:showpageshadow="false"
     scale-x="1" />
  <metadata
     id="metadata2213">
    <rdf:RDF>
      <cc:Work
         rdf:about="">
        <dc:format>image/svg+xml</dc:format>
        <dc:type
           rdf:resource="http://purl.org/dc/dcmitype/StillImage" />
        <dc:title></dc:title>
      </cc:Work>
    </rdf:RDF>
  </metadata>
  <g
     inkscape:label="Layer 1"
     inkscape:groupmode="layer"
     id="layer1"
     transform="translate(250.96359,-149.09241)">


<g
       aria-label="G"
       transform="scale(0.81656019,1.2246495)"
       style="font-style:normal;font-variant:normal;font-weight:normal;font-stretch:normal;font-size:68.16933441px;line-height:1.25;font-family:'Open Sans';-inkscape-font-specification:'Open Sans, Normal';font-variant-ligatures:normal;font-variant-caps:normal;font-variant-numeric:normal;font-feature-settings:normal;text-align:start;letter-spacing:0px;word-spacing:0px;writing-mode:lr-tb;text-anchor:start;fill:#20a6f1;fill-opacity:1;stroke:none;stroke-width:1.82596481"
       id="text834">
      <path
         d="m -259.84032,245.71177 q 0,-16.51927 5.30671,-29.52927 5.30671,-13.09559 14.72183,-22.08276 9.50073,-8.98716 22.42513,-13.69473 13.01,-4.79316 28.41657,-4.79316 8.55921,0 15.83454,0.59915 7.36092,0.51355 13.00999,1.28388 5.73467,0.77033 9.50073,1.62625 3.76605,0.77033 5.22111,1.28388 l -1.88302,29.1869 h -15.40658 l -7.87447,-15.32098 q -0.34237,-0.51355 -1.79743,-1.36947 -1.45507,-0.94152 -4.02283,-1.71185 -2.56776,-0.85592 -6.16263,-1.45506 -3.59487,-0.68474 -8.21684,-0.68474 -8.6448,0 -15.32098,3.85165 -6.67619,3.76605 -11.29816,10.52782 -4.62197,6.67618 -7.01855,15.83454 -2.39658,9.07276 -2.39658,19.60058 0,7.70329 0.77033,15.1498 0.77033,7.44651 2.39658,14.1227 1.62625,6.59059 4.2796,12.15407 2.65336,5.56349 6.33382,9.67191 3.76605,4.02283 8.6448,6.33381 4.96434,2.2254 11.21256,2.2254 4.10842,0 7.96006,-0.94152 3.85165,-0.94151 6.84737,-2.48217 3.08132,-1.54065 5.04993,-3.42368 1.96862,-1.96862 2.2254,-4.02283 v -21.99716 l -18.05993,-2.31099 v -14.20829 h 52.89591 v 14.20829 l -8.04566,1.96862 v 39.80032 q -5.56349,-0.68474 -11.8973,0.34237 -6.24822,1.0271 -13.18118,2.48217 -6.84737,1.45506 -14.29388,2.82453 -7.36092,1.36948 -14.97861,1.36948 -14.1227,0 -25.42085,-5.13553 -11.29816,-5.13552 -19.25822,-14.12269 -7.96006,-8.98717 -12.23967,-21.05565 -4.2796,-12.15408 -4.2796,-26.10559 z"
         style="font-style:normal;font-variant:normal;font-weight:900;font-stretch:normal;font-size:175.29258728px;font-family:Merriweather;-inkscape-font-specification:'Merriweather Heavy';fill:#20a6f1;fill-opacity:1;stroke-width:1.82596481"
         id="path837" />
    </g>



<g
       aria-label="B"
       transform="scale(0.83382697,1.1992896)"
       style="font-style:normal;font-variant:normal;font-weight:normal;font-stretch:normal;font-size:70.58264923px;line-height:1.25;font-family:'Open Sans';-inkscape-font-specification:'Open Sans, Normal';font-variant-ligatures:normal;font-variant-caps:normal;font-variant-numeric:normal;font-feature-settings:normal;text-align:start;letter-spacing:0px;word-spacing:0px;writing-mode:lr-tb;text-anchor:start;fill:#20a6f1;fill-opacity:1;stroke:none;stroke-width:1.89060736"
       id="text838">
      <path
         d="m -109.33232,305.55078 13.736444,-3.81076 v -104.9287 l -13.381954,-1.94969 v -14.53404 h 27.65013 q -0.265867,-0.17724 2.3928,-0.26587 2.747288,-0.17724 7.178399,-0.26586 4.43111,-0.17725 10.01431,-0.35449 5.671821,-0.17725 11.343643,-0.35449 12.229865,-0.35449 21.535198,1.86107 9.305332,2.12693 15.508887,6.46942 6.2921769,4.25386 9.3939543,10.54604 3.19039964,6.20356 3.19039964,13.91369 0,5.40595 -1.41795544,10.45742 -1.4179554,5.05146 -4.3424884,9.30533 -2.8359108,4.16524 -7.1783991,7.35564 -4.342488,3.10178 -10.280177,4.69698 6.558044,0 12.40711,2.65867 5.9376883,2.57004 10.3687989,7.08978 4.5197328,4.51973 7.1783992,10.54604 2.6586664,6.02631 2.6586664,12.85022 0,10.28018 -3.3676441,18.16755 -3.2790219,7.79876 -10.7232877,13.11609 -7.4442657,5.31733 -19.4968867,8.06462 -11.963999,2.74729 -29.333952,2.74729 -3.988,0 -7.710133,-0.17724 -3.722133,-0.0886 -7.798755,-0.35449 -3.987999,-0.17725 -8.773599,-0.35449 -4.696977,-0.0886 -10.723287,-0.0886 h -20.028621 z m 45.108707,-65.75769 q 1.417955,0.44312 4.076622,0.62036 2.658666,0.0886 7.444265,0.0886 5.405955,0 9.039466,-1.24071 3.722133,-1.32933 6.114933,-3.45627 2.481422,-2.12693 3.810755,-4.87422 1.329333,-2.83591 1.861066,-5.76044 0.620356,-2.92453 0.708978,-5.76044 0.177245,-2.92454 0.177245,-5.31734 0,-4.25386 -1.063467,-8.15324 -0.974844,-3.89938 -3.633511,-6.82391 -2.658666,-3.01316 -7.267021,-4.69698 -4.608355,-1.77244 -11.698132,-1.77244 -0.974845,0 -2.304178,0.0886 -1.329333,0.0886 -2.658666,0.26587 -1.329333,0.0886 -2.570044,0.35449 -1.152089,0.26586 -1.861067,0.62035 z m -0.177245,63.63075 q 2.215556,1.15209 7.089777,1.77245 4.962844,0.62035 11.077777,0.62035 6.558044,0 10.81191,-2.65866 4.253866,-2.74729 6.646666,-6.82391 2.481422,-4.16525 3.367644,-8.95085 0.974844,-4.87422 0.974844,-9.12809 0,-4.60835 -1.063466,-8.95084 -0.974845,-4.43111 -3.633511,-7.88738 -2.570044,-3.45626 -7.001155,-5.49457 -4.43111,-2.12694 -11.343643,-2.12694 -3.988,0 -8.330488,0.0886 -4.253866,0.0886 -8.596355,0.97484 z"
         style="font-style:normal;font-variant:normal;font-weight:900;font-stretch:normal;font-size:181.49829102px;font-family:Merriweather;-inkscape-font-specification:'Merriweather Heavy';fill:#20a6f1;fill-opacity:1;stroke-width:1.89060736"
         id="path834" />
    </g>




  </g>
</svg>
