<svg width="372" height="420" viewBox="0 0 372 420" fill="none" xmlns="http://www.w3.org/2000/svg">
<path d="M49.2188 184.469C49.2188 185.406 48.75 188.5 47.8125 193.75C46.875 198.906 45.9375 205.891 45 214.703C44.0625 223.422 43.5938 232.516 43.5938 241.984C43.5938 250.141 44.1094 257.641 45.1406 264.484C46.2656 271.234 48.0938 277.609 50.625 283.609C53.1562 289.609 56.3438 294.719 60.1875 298.938C64.0312 303.062 68.8594 306.344 74.6719 308.781C80.5781 311.125 87.2812 312.297 94.7812 312.297C99.8438 312.297 104.391 311.734 108.422 310.609C112.547 309.391 115.828 308.172 118.266 306.953C120.703 305.734 122.391 305.125 123.328 305.125C125.578 305.125 126.703 306.344 126.703 308.781C126.703 309.812 126.281 311.312 125.438 313.281C124.594 315.156 123.047 317.406 120.797 320.031C118.641 322.562 116.016 324.953 112.922 327.203C109.922 329.453 105.891 331.375 100.828 332.969C95.8594 334.562 90.375 335.359 84.375 335.359C37.6875 335.359 14.3438 305.219 14.3438 244.938C14.3438 220.469 16.6875 204.016 21.375 195.578C23.8125 191.266 27.4688 187.469 32.3438 184.188C37.2188 180.906 41.2031 179.266 44.2969 179.266C47.5781 179.266 49.2188 181 49.2188 184.469ZM133.594 252.672H79.7344C75.7031 252.672 73.6875 251.219 73.6875 248.312C73.6875 247 74.625 244.656 76.5 241.281C78.375 237.812 80.625 234.906 83.25 232.562C85.4062 230.594 88.875 229.609 93.6562 229.609H155.25C158.719 229.609 161.062 230.172 162.281 231.297C163.594 232.328 164.531 234.344 165.094 237.344C165.844 241.094 166.219 246.672 166.219 254.078C166.219 270.109 163.781 284.922 158.906 298.516C155.625 307.422 151.219 314.5 145.688 319.75C140.156 324.906 135.281 327.484 131.062 327.484C129.281 327.484 128.391 326.734 128.391 325.234C128.391 324.484 128.531 323.828 128.812 323.266C129.094 322.703 129.656 321.859 130.5 320.734C131.438 319.609 132.281 318.438 133.031 317.219C139.031 307.188 142.031 292.375 142.031 272.781C142.031 269.875 141.984 267.625 141.891 266.031C141.891 264.344 141.703 262.562 141.328 260.688C141.047 258.719 140.625 257.219 140.062 256.188C139.5 255.156 138.656 254.312 137.531 253.656C136.5 253 135.188 252.672 133.594 252.672ZM152.297 146.078C152.297 149.734 149.859 153.438 144.984 157.188C140.203 160.938 136.031 162.812 132.469 162.812C129.844 162.812 126.375 161.969 122.062 160.281C117.75 158.5 112.594 156.766 106.594 155.078C100.594 153.297 94.2656 152.406 87.6094 152.406C77.9531 152.406 68.2969 154.328 58.6406 158.172C48.9844 162.016 40.5 167.125 33.1875 173.5C28.4062 177.719 25.3125 179.828 23.9062 179.828C21.75 179.828 20.6719 178.656 20.6719 176.312C20.6719 174.719 21.5156 172.469 23.2031 169.562C24.8906 166.562 26.5781 164.125 28.2656 162.25C38.2031 151.281 49.2188 143.078 61.3125 137.641C73.5 132.109 87.8906 129.344 104.484 129.344C115.828 129.344 126.609 130.984 136.828 134.266C147.141 137.453 152.297 141.391 152.297 146.078ZM189.016 331V317.752L215.512 311.416V148.984L189.016 142.648V129.4H271.672C318.52 129.4 341.944 145.72 341.944 178.36C341.944 188.92 338.776 198.136 332.44 206.008C326.296 213.88 317.848 219.544 307.096 223V223.576C322.84 226.456 334.936 232.312 343.384 241.144C352.024 249.976 356.344 261.016 356.344 274.264C356.344 291.544 349.912 305.368 337.048 315.736C324.184 325.912 306.808 331 284.92 331H189.016ZM250.936 313.432H275.992C290.008 313.432 300.856 310.072 308.536 303.352C316.216 296.632 320.056 286.936 320.056 274.264C320.056 262.552 316.024 253.144 307.96 246.04C300.088 238.936 288.952 235.384 274.552 235.384H250.936V313.432ZM250.936 217.24H267.352C278.488 217.24 287.608 214.072 294.712 207.736C302.008 201.208 305.656 192.28 305.656 180.952C305.656 169.432 302.008 160.888 294.712 155.32C287.608 149.752 277.912 146.968 265.624 146.968H250.936V217.24Z" fill="#796BAE"/>
</svg>
