<svg width="343" height="207" viewBox="0 0 343 207" fill="none" xmlns="http://www.w3.org/2000/svg">
<path d="M35.2188 55.4688C35.2188 56.4062 34.75 59.5 33.8125 64.75C32.875 69.9062 31.9375 76.8906 31 85.7031C30.0625 94.4219 29.5938 103.516 29.5938 112.984C29.5938 121.141 30.1094 128.641 31.1406 135.484C32.2656 142.234 34.0938 148.609 36.625 154.609C39.1562 160.609 42.3438 165.719 46.1875 169.938C50.0312 174.062 54.8594 177.344 60.6719 179.781C66.5781 182.125 73.2812 183.297 80.7812 183.297C85.8438 183.297 90.3906 182.734 94.4219 181.609C98.5469 180.391 101.828 179.172 104.266 177.953C106.703 176.734 108.391 176.125 109.328 176.125C111.578 176.125 112.703 177.344 112.703 179.781C112.703 180.812 112.281 182.312 111.438 184.281C110.594 186.156 109.047 188.406 106.797 191.031C104.641 193.562 102.016 195.953 98.9219 198.203C95.9219 200.453 91.8906 202.375 86.8281 203.969C81.8594 205.562 76.375 206.359 70.375 206.359C23.6875 206.359 0.34375 176.219 0.34375 115.938C0.34375 91.4688 2.6875 75.0156 7.375 66.5781C9.8125 62.2656 13.4688 58.4688 18.3438 55.1875C23.2188 51.9062 27.2031 50.2656 30.2969 50.2656C33.5781 50.2656 35.2188 52 35.2188 55.4688ZM119.594 123.672H65.7344C61.7031 123.672 59.6875 122.219 59.6875 119.312C59.6875 118 60.625 115.656 62.5 112.281C64.375 108.812 66.625 105.906 69.25 103.562C71.4062 101.594 74.875 100.609 79.6562 100.609H141.25C144.719 100.609 147.062 101.172 148.281 102.297C149.594 103.328 150.531 105.344 151.094 108.344C151.844 112.094 152.219 117.672 152.219 125.078C152.219 141.109 149.781 155.922 144.906 169.516C141.625 178.422 137.219 185.5 131.688 190.75C126.156 195.906 121.281 198.484 117.062 198.484C115.281 198.484 114.391 197.734 114.391 196.234C114.391 195.484 114.531 194.828 114.812 194.266C115.094 193.703 115.656 192.859 116.5 191.734C117.438 190.609 118.281 189.438 119.031 188.219C125.031 178.188 128.031 163.375 128.031 143.781C128.031 140.875 127.984 138.625 127.891 137.031C127.891 135.344 127.703 133.562 127.328 131.688C127.047 129.719 126.625 128.219 126.062 127.188C125.5 126.156 124.656 125.312 123.531 124.656C122.5 124 121.188 123.672 119.594 123.672ZM138.297 17.0781C138.297 20.7344 135.859 24.4375 130.984 28.1875C126.203 31.9375 122.031 33.8125 118.469 33.8125C115.844 33.8125 112.375 32.9688 108.062 31.2812C103.75 29.5 98.5938 27.7656 92.5938 26.0781C86.5938 24.2969 80.2656 23.4062 73.6094 23.4062C63.9531 23.4062 54.2969 25.3281 44.6406 29.1719C34.9844 33.0156 26.5 38.125 19.1875 44.5C14.4062 48.7188 11.3125 50.8281 9.90625 50.8281C7.75 50.8281 6.67188 49.6562 6.67188 47.3125C6.67188 45.7188 7.51562 43.4688 9.20312 40.5625C10.8906 37.5625 12.5781 35.125 14.2656 33.25C24.2031 22.2812 35.2188 14.0781 47.3125 8.64062C59.5 3.10938 73.8906 0.34375 90.4844 0.34375C101.828 0.34375 112.609 1.98438 122.828 5.26562C133.141 8.45312 138.297 12.3906 138.297 17.0781ZM175.016 202V188.752L201.512 182.416V19.984L175.016 13.648V0.399986H257.672C304.52 0.399986 327.944 16.72 327.944 49.36C327.944 59.92 324.776 69.136 318.44 77.008C312.296 84.88 303.848 90.544 293.096 94V94.576C308.84 97.456 320.936 103.312 329.384 112.144C338.024 120.976 342.344 132.016 342.344 145.264C342.344 162.544 335.912 176.368 323.048 186.736C310.184 196.912 292.808 202 270.92 202H175.016ZM236.936 184.432H261.992C276.008 184.432 286.856 181.072 294.536 174.352C302.216 167.632 306.056 157.936 306.056 145.264C306.056 133.552 302.024 124.144 293.96 117.04C286.088 109.936 274.952 106.384 260.552 106.384H236.936V184.432ZM236.936 88.24H253.352C264.488 88.24 273.608 85.072 280.712 78.736C288.008 72.208 291.656 63.28 291.656 51.952C291.656 40.432 288.008 31.888 280.712 26.32C273.608 20.752 263.912 17.968 251.624 17.968H236.936V88.24Z" fill="#796bae"/>
</svg>
